{
	"patcher" : 	{
		"fileversion" : 1,
		"appversion" : 		{
			"major" : 6,
			"minor" : 1,
			"revision" : 5,
			"architecture" : "x86"
		}
,
		"rect" : [ 58.0, 51.0, 1862.0, 746.0 ],
		"bglocked" : 0,
		"openinpresentation" : 1,
		"default_fontsize" : 12.0,
		"default_fontface" : 0,
		"default_fontname" : "Arial",
		"gridonopen" : 0,
		"gridsize" : [ 15.0, 15.0 ],
		"gridsnaponopen" : 0,
		"statusbarvisible" : 0,
		"toolbarvisible" : 1,
		"boxanimatetime" : 200,
		"imprint" : 0,
		"enablehscroll" : 1,
		"enablevscroll" : 1,
		"devicewidth" : 0.0,
		"description" : "",
		"digest" : "",
		"tags" : "",
		"boxes" : [ 			{
				"box" : 				{
					"id" : "obj-13",
					"maxclass" : "live.text",
					"mode" : 0,
					"numinlets" : 1,
					"numoutlets" : 2,
					"outlettype" : [ "", "" ],
					"parameter_enable" : 1,
					"patching_rect" : [ 329.574402, 479.0, 40.0, 20.0 ],
					"presentation" : 1,
					"presentation_rect" : [ 165.0, 45.0, 75.0, 30.0 ],
					"saved_attribute_attributes" : 					{
						"valueof" : 						{
							"parameter_longname" : "live.text",
							"parameter_shortname" : "live.text",
							"parameter_type" : 2,
							"parameter_mmax" : 1.0,
							"parameter_enum" : [ "val1", "val2" ]
						}

					}
,
					"text" : "clear",
					"varname" : "live.text"
				}

			}
, 			{
				"box" : 				{
					"fontname" : "Arial",
					"fontsize" : 12.0,
					"id" : "obj-8",
					"maxclass" : "newobj",
					"numinlets" : 1,
					"numoutlets" : 1,
					"outlettype" : [ "" ],
					"patcher" : 					{
						"fileversion" : 1,
						"appversion" : 						{
							"major" : 6,
							"minor" : 1,
							"revision" : 5,
							"architecture" : "x86"
						}
,
						"rect" : [ 0.0, 0.0, 640.0, 480.0 ],
						"bglocked" : 0,
						"openinpresentation" : 0,
						"default_fontsize" : 12.0,
						"default_fontface" : 0,
						"default_fontname" : "Arial",
						"gridonopen" : 0,
						"gridsize" : [ 15.0, 15.0 ],
						"gridsnaponopen" : 0,
						"statusbarvisible" : 2,
						"toolbarvisible" : 1,
						"boxanimatetime" : 200,
						"imprint" : 0,
						"enablehscroll" : 1,
						"enablevscroll" : 1,
						"devicewidth" : 0.0,
						"description" : "",
						"digest" : "",
						"tags" : "",
						"boxes" : [ 							{
								"box" : 								{
									"fontname" : "Arial",
									"fontsize" : 12.0,
									"id" : "obj-63",
									"maxclass" : "message",
									"numinlets" : 2,
									"numoutlets" : 1,
									"outlettype" : [ "" ],
									"patching_rect" : [ 93.853271, 145.069336, 105.0, 18.0 ],
									"text" : "/numSpeakers $1"
								}

							}
, 							{
								"box" : 								{
									"fontname" : "Arial",
									"fontsize" : 12.0,
									"id" : "obj-94",
									"maxclass" : "newobj",
									"numinlets" : 2,
									"numoutlets" : 2,
									"outlettype" : [ "", "" ],
									"patching_rect" : [ 85.853271, 119.569336, 49.0, 20.0 ],
									"text" : "zl.nth 2"
								}

							}
, 							{
								"box" : 								{
									"fontname" : "Verdana",
									"fontsize" : 10.0,
									"id" : "obj-85",
									"maxclass" : "newobj",
									"numinlets" : 1,
									"numoutlets" : 1,
									"outlettype" : [ "" ],
									"patching_rect" : [ 50.0, 100.0, 291.0, 19.0 ],
									"text" : "jcom.ambimonitor2position @prefix speaker @radius 1."
								}

							}
, 							{
								"box" : 								{
									"comment" : "",
									"id" : "obj-2",
									"maxclass" : "inlet",
									"numinlets" : 0,
									"numoutlets" : 1,
									"outlettype" : [ "" ],
									"patching_rect" : [ 62.926636, 40.0, 25.0, 25.0 ]
								}

							}
, 							{
								"box" : 								{
									"comment" : "",
									"id" : "obj-6",
									"maxclass" : "outlet",
									"numinlets" : 1,
									"numoutlets" : 0,
									"patching_rect" : [ 66.926636, 223.069336, 25.0, 25.0 ]
								}

							}
 ],
						"lines" : [ 							{
								"patchline" : 								{
									"destination" : [ "obj-85", 0 ],
									"disabled" : 0,
									"hidden" : 0,
									"source" : [ "obj-2", 0 ]
								}

							}
, 							{
								"patchline" : 								{
									"destination" : [ "obj-94", 0 ],
									"disabled" : 0,
									"hidden" : 0,
									"source" : [ "obj-2", 0 ]
								}

							}
, 							{
								"patchline" : 								{
									"destination" : [ "obj-6", 0 ],
									"disabled" : 0,
									"hidden" : 0,
									"source" : [ "obj-63", 0 ]
								}

							}
, 							{
								"patchline" : 								{
									"destination" : [ "obj-6", 0 ],
									"disabled" : 0,
									"hidden" : 0,
									"source" : [ "obj-85", 0 ]
								}

							}
, 							{
								"patchline" : 								{
									"destination" : [ "obj-63", 0 ],
									"disabled" : 0,
									"hidden" : 0,
									"source" : [ "obj-94", 0 ]
								}

							}
 ]
					}
,
					"patching_rect" : [ 1050.0, 825.0, 80.0, 20.0 ],
					"saved_object_attributes" : 					{
						"default_fontface" : 0,
						"default_fontname" : "Arial",
						"default_fontsize" : 12.0,
						"description" : "",
						"digest" : "",
						"fontface" : 0,
						"fontname" : "Arial",
						"fontsize" : 12.0,
						"globalpatchername" : "",
						"tags" : ""
					}
,
					"text" : "p speakerout"
				}

			}
, 			{
				"box" : 				{
					"fontname" : "Arial",
					"fontsize" : 12.0,
					"id" : "obj-10",
					"maxclass" : "newobj",
					"numinlets" : 0,
					"numoutlets" : 1,
					"outlettype" : [ "bang" ],
					"patcher" : 					{
						"fileversion" : 1,
						"appversion" : 						{
							"major" : 6,
							"minor" : 1,
							"revision" : 5,
							"architecture" : "x86"
						}
,
						"rect" : [ 0.0, 0.0, 640.0, 480.0 ],
						"bglocked" : 0,
						"openinpresentation" : 0,
						"default_fontsize" : 12.0,
						"default_fontface" : 0,
						"default_fontname" : "Arial",
						"gridonopen" : 0,
						"gridsize" : [ 15.0, 15.0 ],
						"gridsnaponopen" : 0,
						"statusbarvisible" : 2,
						"toolbarvisible" : 1,
						"boxanimatetime" : 200,
						"imprint" : 0,
						"enablehscroll" : 1,
						"enablevscroll" : 1,
						"devicewidth" : 0.0,
						"description" : "",
						"digest" : "",
						"tags" : "",
						"boxes" : [ 							{
								"box" : 								{
									"fontname" : "Arial",
									"fontsize" : 12.0,
									"id" : "obj-6",
									"maxclass" : "newobj",
									"numinlets" : 2,
									"numoutlets" : 1,
									"outlettype" : [ "bang" ],
									"patching_rect" : [ 50.0, 130.0, 69.0, 20.0 ],
									"text" : "delay 2000"
								}

							}
, 							{
								"box" : 								{
									"fontname" : "Arial",
									"fontsize" : 12.0,
									"id" : "obj-14",
									"maxclass" : "newobj",
									"numinlets" : 1,
									"numoutlets" : 1,
									"outlettype" : [ "" ],
									"patching_rect" : [ 50.0, 100.0, 104.0, 20.0 ],
									"text" : "loadmess offset 8"
								}

							}
, 							{
								"box" : 								{
									"comment" : "",
									"id" : "obj-8",
									"maxclass" : "outlet",
									"numinlets" : 1,
									"numoutlets" : 0,
									"patching_rect" : [ 50.0, 210.0, 25.0, 25.0 ]
								}

							}
 ],
						"lines" : [ 							{
								"patchline" : 								{
									"destination" : [ "obj-6", 0 ],
									"disabled" : 0,
									"hidden" : 0,
									"source" : [ "obj-14", 0 ]
								}

							}
, 							{
								"patchline" : 								{
									"destination" : [ "obj-8", 0 ],
									"disabled" : 0,
									"hidden" : 0,
									"source" : [ "obj-6", 0 ]
								}

							}
 ]
					}
,
					"patching_rect" : [ 524.574402, 149.0, 36.0, 20.0 ],
					"saved_object_attributes" : 					{
						"default_fontface" : 0,
						"default_fontname" : "Arial",
						"default_fontsize" : 12.0,
						"description" : "",
						"digest" : "",
						"fontface" : 0,
						"fontname" : "Arial",
						"fontsize" : 12.0,
						"globalpatchername" : "",
						"tags" : ""
					}
,
					"text" : "p init"
				}

			}
, 			{
				"box" : 				{
					"fontname" : "Arial",
					"fontsize" : 12.0,
					"id" : "obj-7",
					"maxclass" : "newobj",
					"numinlets" : 1,
					"numoutlets" : 1,
					"outlettype" : [ "dump" ],
					"patching_rect" : [ 169.5, 464.0, 47.0, 20.0 ],
					"text" : "t dump"
				}

			}
, 			{
				"box" : 				{
					"fontname" : "Arial",
					"fontsize" : 12.0,
					"frgb" : 0.0,
					"id" : "obj-83",
					"maxclass" : "comment",
					"numinlets" : 1,
					"numoutlets" : 0,
					"patching_rect" : [ 159.0, 101.0, 150.0, 20.0 ],
					"presentation" : 1,
					"presentation_rect" : [ 62.460434, 45.0, 65.0, 20.0 ],
					"text" : "random"
				}

			}
, 			{
				"box" : 				{
					"fontname" : "Arial",
					"fontsize" : 24.0,
					"frgb" : 0.0,
					"id" : "obj-75",
					"linecount" : 2,
					"maxclass" : "comment",
					"numinlets" : 1,
					"numoutlets" : 0,
					"patching_rect" : [ 920.353271, 45.484924, 293.0, 60.0 ],
					"presentation" : 1,
					"presentation_rect" : [ 743.300476, 251.0, 323.0, 33.0 ],
					"text" : "SPEAKER CONTROL ^ -->"
				}

			}
, 			{
				"box" : 				{
					"fontname" : "Arial",
					"fontsize" : 12.0,
					"id" : "obj-73",
					"maxclass" : "newobj",
					"numinlets" : 1,
					"numoutlets" : 1,
					"outlettype" : [ "" ],
					"patcher" : 					{
						"fileversion" : 1,
						"appversion" : 						{
							"major" : 6,
							"minor" : 1,
							"revision" : 5,
							"architecture" : "x86"
						}
,
						"rect" : [ 0.0, 0.0, 640.0, 480.0 ],
						"bglocked" : 0,
						"openinpresentation" : 0,
						"default_fontsize" : 12.0,
						"default_fontface" : 0,
						"default_fontname" : "Arial",
						"gridonopen" : 0,
						"gridsize" : [ 15.0, 15.0 ],
						"gridsnaponopen" : 0,
						"statusbarvisible" : 2,
						"toolbarvisible" : 1,
						"boxanimatetime" : 200,
						"imprint" : 0,
						"enablehscroll" : 1,
						"enablevscroll" : 1,
						"devicewidth" : 0.0,
						"description" : "",
						"digest" : "",
						"tags" : "",
						"boxes" : [ 							{
								"box" : 								{
									"fontname" : "Arial",
									"fontsize" : 12.0,
									"id" : "obj-53",
									"maxclass" : "newobj",
									"numinlets" : 2,
									"numoutlets" : 2,
									"outlettype" : [ "", "" ],
									"patching_rect" : [ 50.0, 137.423828, 49.0, 20.0 ],
									"text" : "zl.iter 2"
								}

							}
, 							{
								"box" : 								{
									"fontname" : "Arial",
									"fontsize" : 12.0,
									"id" : "obj-34",
									"maxclass" : "newobj",
									"numinlets" : 1,
									"numoutlets" : 1,
									"outlettype" : [ "bang" ],
									"patching_rect" : [ 50.0, 197.423828, 24.0, 20.0 ],
									"text" : "t b"
								}

							}
, 							{
								"box" : 								{
									"fontname" : "Arial",
									"fontsize" : 12.0,
									"id" : "obj-33",
									"maxclass" : "newobj",
									"numinlets" : 1,
									"numoutlets" : 2,
									"outlettype" : [ "int", "float" ],
									"patching_rect" : [ 50.0, 177.423828, 84.074402, 20.0 ],
									"text" : "unpack 0 0."
								}

							}
, 							{
								"box" : 								{
									"fontname" : "Arial",
									"fontsize" : 12.0,
									"id" : "obj-105",
									"maxclass" : "newobj",
									"numinlets" : 1,
									"numoutlets" : 1,
									"outlettype" : [ "list" ],
									"patching_rect" : [ 50.0, 100.0, 68.0, 20.0 ],
									"text" : "listfunnel 1"
								}

							}
, 							{
								"box" : 								{
									"fontname" : "Arial",
									"fontsize" : 12.0,
									"id" : "obj-69",
									"maxclass" : "message",
									"numinlets" : 2,
									"numoutlets" : 1,
									"outlettype" : [ "" ],
									"patching_rect" : [ 207.574402, 222.423828, 43.0, 18.0 ],
									"text" : "set $1"
								}

							}
, 							{
								"box" : 								{
									"fontname" : "Arial",
									"fontsize" : 12.0,
									"id" : "obj-15",
									"maxclass" : "newobj",
									"numinlets" : 1,
									"numoutlets" : 1,
									"outlettype" : [ "" ],
									"patching_rect" : [ 50.0, 272.347656, 67.0, 20.0 ],
									"text" : "append 50"
								}

							}
, 							{
								"box" : 								{
									"fontname" : "Arial",
									"fontsize" : 12.0,
									"id" : "obj-11",
									"maxclass" : "newobj",
									"numinlets" : 3,
									"numoutlets" : 2,
									"outlettype" : [ "", "" ],
									"patching_rect" : [ 50.0, 233.347656, 211.0, 20.0 ],
									"text" : "combine /source. 0 /gain @triggers -1"
								}

							}
, 							{
								"box" : 								{
									"comment" : "",
									"id" : "obj-70",
									"maxclass" : "inlet",
									"numinlets" : 0,
									"numoutlets" : 1,
									"outlettype" : [ "" ],
									"patching_rect" : [ 50.0, 40.0, 25.0, 25.0 ]
								}

							}
, 							{
								"box" : 								{
									"comment" : "",
									"id" : "obj-72",
									"maxclass" : "outlet",
									"numinlets" : 1,
									"numoutlets" : 0,
									"patching_rect" : [ 50.0, 352.347656, 25.0, 25.0 ]
								}

							}
 ],
						"lines" : [ 							{
								"patchline" : 								{
									"destination" : [ "obj-53", 0 ],
									"disabled" : 0,
									"hidden" : 0,
									"source" : [ "obj-105", 0 ]
								}

							}
, 							{
								"patchline" : 								{
									"destination" : [ "obj-15", 0 ],
									"disabled" : 0,
									"hidden" : 0,
									"source" : [ "obj-11", 0 ]
								}

							}
, 							{
								"patchline" : 								{
									"destination" : [ "obj-72", 0 ],
									"disabled" : 0,
									"hidden" : 0,
									"source" : [ "obj-15", 0 ]
								}

							}
, 							{
								"patchline" : 								{
									"destination" : [ "obj-11", 1 ],
									"disabled" : 0,
									"hidden" : 0,
									"source" : [ "obj-33", 0 ]
								}

							}
, 							{
								"patchline" : 								{
									"destination" : [ "obj-34", 0 ],
									"disabled" : 0,
									"hidden" : 0,
									"source" : [ "obj-33", 0 ]
								}

							}
, 							{
								"patchline" : 								{
									"destination" : [ "obj-69", 0 ],
									"disabled" : 0,
									"hidden" : 0,
									"source" : [ "obj-33", 1 ]
								}

							}
, 							{
								"patchline" : 								{
									"destination" : [ "obj-11", 0 ],
									"disabled" : 0,
									"hidden" : 0,
									"source" : [ "obj-34", 0 ]
								}

							}
, 							{
								"patchline" : 								{
									"destination" : [ "obj-33", 0 ],
									"disabled" : 0,
									"hidden" : 0,
									"source" : [ "obj-53", 0 ]
								}

							}
, 							{
								"patchline" : 								{
									"destination" : [ "obj-15", 0 ],
									"disabled" : 0,
									"hidden" : 0,
									"source" : [ "obj-69", 0 ]
								}

							}
, 							{
								"patchline" : 								{
									"destination" : [ "obj-105", 0 ],
									"disabled" : 0,
									"hidden" : 0,
									"source" : [ "obj-70", 0 ]
								}

							}
 ]
					}
,
					"patching_rect" : [ 119.574402, 1113.746216, 121.0, 20.0 ],
					"saved_object_attributes" : 					{
						"default_fontface" : 0,
						"default_fontname" : "Arial",
						"default_fontsize" : 12.0,
						"description" : "",
						"digest" : "",
						"fontface" : 0,
						"fontname" : "Arial",
						"fontsize" : 12.0,
						"globalpatchername" : "",
						"tags" : ""
					}
,
					"text" : "p multichannel mixer"
				}

			}
, 			{
				"box" : 				{
					"fontname" : "Arial",
					"fontsize" : 12.0,
					"id" : "obj-65",
					"maxclass" : "newobj",
					"numinlets" : 1,
					"numoutlets" : 2,
					"outlettype" : [ "", "" ],
					"patcher" : 					{
						"fileversion" : 1,
						"appversion" : 						{
							"major" : 6,
							"minor" : 1,
							"revision" : 5,
							"architecture" : "x86"
						}
,
						"rect" : [ 25.0, 69.0, 640.0, 480.0 ],
						"bglocked" : 0,
						"openinpresentation" : 0,
						"default_fontsize" : 12.0,
						"default_fontface" : 0,
						"default_fontname" : "Arial",
						"gridonopen" : 0,
						"gridsize" : [ 15.0, 15.0 ],
						"gridsnaponopen" : 0,
						"statusbarvisible" : 2,
						"toolbarvisible" : 1,
						"boxanimatetime" : 200,
						"imprint" : 0,
						"enablehscroll" : 1,
						"enablevscroll" : 1,
						"devicewidth" : 0.0,
						"description" : "",
						"digest" : "",
						"tags" : "",
						"boxes" : [ 							{
								"box" : 								{
									"fontname" : "Arial",
									"fontsize" : 12.0,
									"id" : "obj-63",
									"maxclass" : "message",
									"numinlets" : 2,
									"numoutlets" : 1,
									"outlettype" : [ "" ],
									"patching_rect" : [ 103.0, 125.5, 98.0, 18.0 ],
									"text" : "/numSources $1"
								}

							}
, 							{
								"box" : 								{
									"fontname" : "Arial",
									"fontsize" : 13.0,
									"id" : "obj-2",
									"maxclass" : "message",
									"numinlets" : 2,
									"numoutlets" : 1,
									"outlettype" : [ "" ],
									"patching_rect" : [ 50.0, 125.5, 50.0, 19.0 ],
									"text" : "size $1"
								}

							}
, 							{
								"box" : 								{
									"fontname" : "Arial",
									"fontsize" : 12.0,
									"id" : "obj-94",
									"maxclass" : "newobj",
									"numinlets" : 2,
									"numoutlets" : 2,
									"outlettype" : [ "", "" ],
									"patching_rect" : [ 50.0, 100.0, 49.0, 20.0 ],
									"text" : "zl.nth 2"
								}

							}
, 							{
								"box" : 								{
									"comment" : "",
									"id" : "obj-61",
									"maxclass" : "inlet",
									"numinlets" : 0,
									"numoutlets" : 1,
									"outlettype" : [ "" ],
									"patching_rect" : [ 50.0, 40.0, 25.0, 25.0 ]
								}

							}
, 							{
								"box" : 								{
									"comment" : "",
									"id" : "obj-62",
									"maxclass" : "outlet",
									"numinlets" : 1,
									"numoutlets" : 0,
									"patching_rect" : [ 50.0, 204.5, 25.0, 25.0 ]
								}

							}
, 							{
								"box" : 								{
									"comment" : "",
									"id" : "obj-64",
									"maxclass" : "outlet",
									"numinlets" : 1,
									"numoutlets" : 0,
									"patching_rect" : [ 103.0, 204.5, 25.0, 25.0 ]
								}

							}
 ],
						"lines" : [ 							{
								"patchline" : 								{
									"destination" : [ "obj-62", 0 ],
									"disabled" : 0,
									"hidden" : 0,
									"source" : [ "obj-2", 0 ]
								}

							}
, 							{
								"patchline" : 								{
									"destination" : [ "obj-94", 0 ],
									"disabled" : 0,
									"hidden" : 0,
									"source" : [ "obj-61", 0 ]
								}

							}
, 							{
								"patchline" : 								{
									"destination" : [ "obj-64", 0 ],
									"disabled" : 0,
									"hidden" : 0,
									"source" : [ "obj-63", 0 ]
								}

							}
, 							{
								"patchline" : 								{
									"destination" : [ "obj-2", 0 ],
									"disabled" : 0,
									"hidden" : 0,
									"source" : [ "obj-94", 0 ]
								}

							}
, 							{
								"patchline" : 								{
									"destination" : [ "obj-63", 0 ],
									"disabled" : 0,
									"hidden" : 0,
									"source" : [ "obj-94", 0 ]
								}

							}
 ]
					}
,
					"patching_rect" : [ 119.574402, 914.0, 107.0, 20.0 ],
					"saved_object_attributes" : 					{
						"default_fontface" : 0,
						"default_fontname" : "Arial",
						"default_fontsize" : 12.0,
						"description" : "",
						"digest" : "",
						"fontface" : 0,
						"fontname" : "Arial",
						"fontsize" : 12.0,
						"globalpatchername" : "",
						"tags" : ""
					}
,
					"text" : "p XYZ_mixerroute"
				}

			}
, 			{
				"box" : 				{
					"fontname" : "Verdana",
					"fontsize" : 10.0,
					"id" : "obj-57",
					"maxclass" : "newobj",
					"numinlets" : 1,
					"numoutlets" : 1,
					"outlettype" : [ "" ],
					"patcher" : 					{
						"fileversion" : 1,
						"appversion" : 						{
							"major" : 6,
							"minor" : 1,
							"revision" : 5,
							"architecture" : "x86"
						}
,
						"rect" : [ 2394.0, 225.0, 647.0, 278.0 ],
						"bglocked" : 0,
						"openinpresentation" : 0,
						"default_fontsize" : 10.0,
						"default_fontface" : 0,
						"default_fontname" : "Verdana",
						"gridonopen" : 0,
						"gridsize" : [ 5.0, 5.0 ],
						"gridsnaponopen" : 0,
						"statusbarvisible" : 2,
						"toolbarvisible" : 1,
						"boxanimatetime" : 200,
						"imprint" : 0,
						"enablehscroll" : 1,
						"enablevscroll" : 1,
						"devicewidth" : 0.0,
						"description" : "",
						"digest" : "",
						"tags" : "",
						"boxes" : [ 							{
								"box" : 								{
									"fontname" : "Verdana",
									"fontsize" : 10.0,
									"id" : "obj-2",
									"maxclass" : "newobj",
									"numinlets" : 6,
									"numoutlets" : 1,
									"outlettype" : [ "" ],
									"patching_rect" : [ 407.0, 155.0, 107.0, 19.0 ],
									"text" : "scale 0. 200. -1. 1."
								}

							}
, 							{
								"box" : 								{
									"fontname" : "Verdana",
									"fontsize" : 10.0,
									"id" : "obj-3",
									"maxclass" : "newobj",
									"numinlets" : 2,
									"numoutlets" : 1,
									"outlettype" : [ "int" ],
									"patching_rect" : [ 407.0, 130.0, 72.0, 19.0 ],
									"text" : "random 201"
								}

							}
, 							{
								"box" : 								{
									"fontname" : "Verdana",
									"fontsize" : 10.0,
									"id" : "obj-1",
									"maxclass" : "newobj",
									"numinlets" : 2,
									"numoutlets" : 1,
									"outlettype" : [ "int" ],
									"patching_rect" : [ 77.0, 78.0, 32.5, 19.0 ],
									"text" : "+ 8"
								}

							}
, 							{
								"box" : 								{
									"fontname" : "Verdana",
									"fontsize" : 10.0,
									"id" : "obj-17",
									"maxclass" : "newobj",
									"numinlets" : 6,
									"numoutlets" : 1,
									"outlettype" : [ "" ],
									"patching_rect" : [ 300.0, 155.0, 107.0, 19.0 ],
									"text" : "scale 0. 200. -1. 1."
								}

							}
, 							{
								"box" : 								{
									"fontname" : "Verdana",
									"fontsize" : 10.0,
									"id" : "obj-18",
									"maxclass" : "newobj",
									"numinlets" : 2,
									"numoutlets" : 1,
									"outlettype" : [ "int" ],
									"patching_rect" : [ 300.0, 130.0, 72.0, 19.0 ],
									"text" : "random 201"
								}

							}
, 							{
								"box" : 								{
									"fontname" : "Verdana",
									"fontsize" : 10.0,
									"id" : "obj-16",
									"maxclass" : "newobj",
									"numinlets" : 6,
									"numoutlets" : 1,
									"outlettype" : [ "" ],
									"patching_rect" : [ 180.0, 155.0, 107.0, 19.0 ],
									"text" : "scale 0. 200. -1. 1."
								}

							}
, 							{
								"box" : 								{
									"fontname" : "Verdana",
									"fontsize" : 10.0,
									"id" : "obj-15",
									"maxclass" : "newobj",
									"numinlets" : 2,
									"numoutlets" : 1,
									"outlettype" : [ "int" ],
									"patching_rect" : [ 180.0, 130.0, 72.0, 19.0 ],
									"text" : "random 201"
								}

							}
, 							{
								"box" : 								{
									"fontname" : "Verdana",
									"fontsize" : 10.0,
									"id" : "obj-14",
									"maxclass" : "newobj",
									"numinlets" : 4,
									"numoutlets" : 1,
									"outlettype" : [ "" ],
									"patching_rect" : [ 80.0, 185.0, 204.0, 19.0 ],
									"text" : "sprintf /source.%ld/position %f %f %f"
								}

							}
, 							{
								"box" : 								{
									"fontname" : "Verdana",
									"fontsize" : 10.0,
									"id" : "obj-13",
									"maxclass" : "newobj",
									"numinlets" : 1,
									"numoutlets" : 2,
									"outlettype" : [ "int", "bang" ],
									"patching_rect" : [ 77.0, 110.0, 32.5, 19.0 ],
									"text" : "t i b"
								}

							}
, 							{
								"box" : 								{
									"fontname" : "Verdana",
									"fontsize" : 10.0,
									"id" : "obj-12",
									"maxclass" : "newobj",
									"numinlets" : 2,
									"numoutlets" : 3,
									"outlettype" : [ "bang", "bang", "int" ],
									"patching_rect" : [ 50.0, 50.0, 46.0, 19.0 ],
									"text" : "uzi 8 1"
								}

							}
, 							{
								"box" : 								{
									"comment" : "",
									"id" : "obj-10",
									"maxclass" : "inlet",
									"numinlets" : 0,
									"numoutlets" : 1,
									"outlettype" : [ "bang" ],
									"patching_rect" : [ 50.0, 15.0, 25.0, 25.0 ]
								}

							}
, 							{
								"box" : 								{
									"comment" : "",
									"id" : "obj-11",
									"maxclass" : "outlet",
									"numinlets" : 1,
									"numoutlets" : 0,
									"patching_rect" : [ 75.0, 220.0, 25.0, 25.0 ]
								}

							}
 ],
						"lines" : [ 							{
								"patchline" : 								{
									"destination" : [ "obj-13", 0 ],
									"disabled" : 0,
									"hidden" : 0,
									"source" : [ "obj-1", 0 ]
								}

							}
, 							{
								"patchline" : 								{
									"destination" : [ "obj-12", 0 ],
									"disabled" : 0,
									"hidden" : 0,
									"source" : [ "obj-10", 0 ]
								}

							}
, 							{
								"patchline" : 								{
									"destination" : [ "obj-1", 0 ],
									"disabled" : 0,
									"hidden" : 0,
									"source" : [ "obj-12", 2 ]
								}

							}
, 							{
								"patchline" : 								{
									"destination" : [ "obj-14", 0 ],
									"disabled" : 0,
									"hidden" : 0,
									"source" : [ "obj-13", 0 ]
								}

							}
, 							{
								"patchline" : 								{
									"destination" : [ "obj-15", 0 ],
									"disabled" : 0,
									"hidden" : 0,
									"source" : [ "obj-13", 1 ]
								}

							}
, 							{
								"patchline" : 								{
									"destination" : [ "obj-18", 0 ],
									"disabled" : 0,
									"hidden" : 0,
									"source" : [ "obj-13", 1 ]
								}

							}
, 							{
								"patchline" : 								{
									"destination" : [ "obj-3", 0 ],
									"disabled" : 0,
									"hidden" : 0,
									"source" : [ "obj-13", 1 ]
								}

							}
, 							{
								"patchline" : 								{
									"destination" : [ "obj-11", 0 ],
									"disabled" : 0,
									"hidden" : 0,
									"source" : [ "obj-14", 0 ]
								}

							}
, 							{
								"patchline" : 								{
									"destination" : [ "obj-16", 0 ],
									"disabled" : 0,
									"hidden" : 0,
									"source" : [ "obj-15", 0 ]
								}

							}
, 							{
								"patchline" : 								{
									"destination" : [ "obj-14", 1 ],
									"disabled" : 0,
									"hidden" : 0,
									"source" : [ "obj-16", 0 ]
								}

							}
, 							{
								"patchline" : 								{
									"destination" : [ "obj-14", 2 ],
									"disabled" : 0,
									"hidden" : 0,
									"source" : [ "obj-17", 0 ]
								}

							}
, 							{
								"patchline" : 								{
									"destination" : [ "obj-17", 0 ],
									"disabled" : 0,
									"hidden" : 0,
									"source" : [ "obj-18", 0 ]
								}

							}
, 							{
								"patchline" : 								{
									"destination" : [ "obj-14", 3 ],
									"disabled" : 0,
									"hidden" : 0,
									"source" : [ "obj-2", 0 ]
								}

							}
, 							{
								"patchline" : 								{
									"destination" : [ "obj-2", 0 ],
									"disabled" : 0,
									"hidden" : 0,
									"source" : [ "obj-3", 0 ]
								}

							}
 ]
					}
,
					"patching_rect" : [ 419.574402, 149.0, 104.0, 19.0 ],
					"saved_object_attributes" : 					{
						"default_fontface" : 0,
						"default_fontname" : "Verdana",
						"default_fontsize" : 10.0,
						"description" : "",
						"digest" : "",
						"fontface" : 0,
						"fontname" : "Verdana",
						"fontsize" : 10.0,
						"globalpatchername" : "",
						"tags" : ""
					}
,
					"text" : "p random_position"
				}

			}
, 			{
				"box" : 				{
					"args" : [ "/9-16" ],
					"id" : "obj-18",
					"lockeddragscroll" : 1,
					"maxclass" : "bpatcher",
					"name" : "jmod.sur.position.maxpat",
					"numinlets" : 1,
					"numoutlets" : 1,
					"outlettype" : [ "" ],
					"patching_rect" : [ 420.0, 210.0, 300.0, 210.0 ],
					"presentation" : 1,
					"presentation_rect" : [ -2.463989, 290.263062, 300.0, 210.0 ],
					"varname" : "9-18"
				}

			}
, 			{
				"box" : 				{
					"args" : [ "/1-8" ],
					"id" : "obj-86",
					"lockeddragscroll" : 1,
					"maxclass" : "bpatcher",
					"name" : "jmod.sur.position.maxpat",
					"numinlets" : 1,
					"numoutlets" : 1,
					"outlettype" : [ "" ],
					"patching_rect" : [ 122.5, 210.0, 300.0, 210.0 ],
					"presentation" : 1,
					"presentation_rect" : [ 0.0, 76.930634, 300.0, 210.0 ],
					"varname" : "jmod.sur.position.mxt"
				}

			}
, 			{
				"box" : 				{
					"fontname" : "Arial",
					"fontsize" : 12.0,
					"id" : "obj-84",
					"maxclass" : "newobj",
					"numinlets" : 1,
					"numoutlets" : 1,
					"outlettype" : [ "bang" ],
					"patching_rect" : [ 449.574402, 554.0, 24.0, 20.0 ],
					"text" : "t b"
				}

			}
, 			{
				"box" : 				{
					"fontname" : "Verdana",
					"fontsize" : 10.0,
					"id" : "obj-78",
					"maxclass" : "newobj",
					"numinlets" : 1,
					"numoutlets" : 1,
					"outlettype" : [ "" ],
					"patching_rect" : [ 122.5, 464.0, 70.0, 19.0 ],
					"text" : "prepend set"
				}

			}
, 			{
				"box" : 				{
					"fontname" : "Verdana",
					"fontsize" : 10.0,
					"id" : "obj-17",
					"maxclass" : "newobj",
					"numinlets" : 1,
					"numoutlets" : 1,
					"outlettype" : [ "" ],
					"patching_rect" : [ 122.5, 442.0, 284.0, 19.0 ],
					"text" : "jcom.position2ambimonitor @prefix source @radius 1."
				}

			}
, 			{
				"box" : 				{
					"id" : "obj-82",
					"maxclass" : "button",
					"numinlets" : 1,
					"numoutlets" : 1,
					"outlettype" : [ "bang" ],
					"patching_rect" : [ 122.5, 101.0, 20.0, 20.0 ],
					"presentation" : 1,
					"presentation_rect" : [ 30.0, 45.0, 20.0, 20.0 ]
				}

			}
, 			{
				"box" : 				{
					"fontname" : "Verdana",
					"fontsize" : 10.0,
					"id" : "obj-25",
					"maxclass" : "newobj",
					"numinlets" : 1,
					"numoutlets" : 1,
					"outlettype" : [ "" ],
					"patcher" : 					{
						"fileversion" : 1,
						"appversion" : 						{
							"major" : 6,
							"minor" : 1,
							"revision" : 5,
							"architecture" : "x86"
						}
,
						"rect" : [ 737.0, 372.0, 462.0, 278.0 ],
						"bglocked" : 0,
						"openinpresentation" : 0,
						"default_fontsize" : 10.0,
						"default_fontface" : 0,
						"default_fontname" : "Verdana",
						"gridonopen" : 0,
						"gridsize" : [ 5.0, 5.0 ],
						"gridsnaponopen" : 0,
						"statusbarvisible" : 2,
						"toolbarvisible" : 1,
						"boxanimatetime" : 200,
						"imprint" : 0,
						"enablehscroll" : 1,
						"enablevscroll" : 1,
						"devicewidth" : 0.0,
						"description" : "",
						"digest" : "",
						"tags" : "",
						"boxes" : [ 							{
								"box" : 								{
									"fontname" : "Verdana",
									"fontsize" : 10.0,
									"id" : "obj-5",
									"maxclass" : "newobj",
									"numinlets" : 6,
									"numoutlets" : 1,
									"outlettype" : [ "" ],
									"patching_rect" : [ 408.0, 155.0, 107.0, 19.0 ],
									"text" : "scale 0. 200. -1. 1."
								}

							}
, 							{
								"box" : 								{
									"fontname" : "Verdana",
									"fontsize" : 10.0,
									"id" : "obj-6",
									"maxclass" : "newobj",
									"numinlets" : 2,
									"numoutlets" : 1,
									"outlettype" : [ "int" ],
									"patching_rect" : [ 408.0, 130.0, 72.0, 19.0 ],
									"text" : "random 201"
								}

							}
, 							{
								"box" : 								{
									"fontname" : "Verdana",
									"fontsize" : 10.0,
									"id" : "obj-17",
									"maxclass" : "newobj",
									"numinlets" : 6,
									"numoutlets" : 1,
									"outlettype" : [ "" ],
									"patching_rect" : [ 300.0, 155.0, 107.0, 19.0 ],
									"text" : "scale 0. 200. -1. 1."
								}

							}
, 							{
								"box" : 								{
									"fontname" : "Verdana",
									"fontsize" : 10.0,
									"id" : "obj-18",
									"maxclass" : "newobj",
									"numinlets" : 2,
									"numoutlets" : 1,
									"outlettype" : [ "int" ],
									"patching_rect" : [ 300.0, 130.0, 72.0, 19.0 ],
									"text" : "random 201"
								}

							}
, 							{
								"box" : 								{
									"fontname" : "Verdana",
									"fontsize" : 10.0,
									"id" : "obj-16",
									"maxclass" : "newobj",
									"numinlets" : 6,
									"numoutlets" : 1,
									"outlettype" : [ "" ],
									"patching_rect" : [ 180.0, 155.0, 107.0, 19.0 ],
									"text" : "scale 0. 200. -1. 1."
								}

							}
, 							{
								"box" : 								{
									"fontname" : "Verdana",
									"fontsize" : 10.0,
									"id" : "obj-15",
									"maxclass" : "newobj",
									"numinlets" : 2,
									"numoutlets" : 1,
									"outlettype" : [ "int" ],
									"patching_rect" : [ 180.0, 130.0, 72.0, 19.0 ],
									"text" : "random 201"
								}

							}
, 							{
								"box" : 								{
									"fontname" : "Verdana",
									"fontsize" : 10.0,
									"id" : "obj-14",
									"maxclass" : "newobj",
									"numinlets" : 4,
									"numoutlets" : 1,
									"outlettype" : [ "" ],
									"patching_rect" : [ 75.0, 185.0, 334.0, 19.0 ],
									"text" : "sprintf /source.%ld/position %f %f %f"
								}

							}
, 							{
								"box" : 								{
									"fontname" : "Verdana",
									"fontsize" : 10.0,
									"id" : "obj-13",
									"maxclass" : "newobj",
									"numinlets" : 1,
									"numoutlets" : 2,
									"outlettype" : [ "int", "bang" ],
									"patching_rect" : [ 80.0, 90.0, 32.5, 19.0 ],
									"text" : "t i b"
								}

							}
, 							{
								"box" : 								{
									"fontname" : "Verdana",
									"fontsize" : 10.0,
									"id" : "obj-12",
									"maxclass" : "newobj",
									"numinlets" : 2,
									"numoutlets" : 3,
									"outlettype" : [ "bang", "bang", "int" ],
									"patching_rect" : [ 50.0, 50.0, 46.0, 19.0 ],
									"text" : "uzi 8 1"
								}

							}
, 							{
								"box" : 								{
									"comment" : "",
									"id" : "obj-10",
									"maxclass" : "inlet",
									"numinlets" : 0,
									"numoutlets" : 1,
									"outlettype" : [ "bang" ],
									"patching_rect" : [ 50.0, 15.0, 25.0, 25.0 ]
								}

							}
, 							{
								"box" : 								{
									"comment" : "",
									"id" : "obj-11",
									"maxclass" : "outlet",
									"numinlets" : 1,
									"numoutlets" : 0,
									"patching_rect" : [ 75.0, 220.0, 25.0, 25.0 ]
								}

							}
 ],
						"lines" : [ 							{
								"patchline" : 								{
									"destination" : [ "obj-12", 0 ],
									"disabled" : 0,
									"hidden" : 0,
									"source" : [ "obj-10", 0 ]
								}

							}
, 							{
								"patchline" : 								{
									"destination" : [ "obj-13", 0 ],
									"disabled" : 0,
									"hidden" : 0,
									"source" : [ "obj-12", 2 ]
								}

							}
, 							{
								"patchline" : 								{
									"destination" : [ "obj-14", 0 ],
									"disabled" : 0,
									"hidden" : 0,
									"source" : [ "obj-13", 0 ]
								}

							}
, 							{
								"patchline" : 								{
									"destination" : [ "obj-15", 0 ],
									"disabled" : 0,
									"hidden" : 0,
									"source" : [ "obj-13", 1 ]
								}

							}
, 							{
								"patchline" : 								{
									"destination" : [ "obj-18", 0 ],
									"disabled" : 0,
									"hidden" : 0,
									"source" : [ "obj-13", 1 ]
								}

							}
, 							{
								"patchline" : 								{
									"destination" : [ "obj-6", 0 ],
									"disabled" : 0,
									"hidden" : 0,
									"source" : [ "obj-13", 1 ]
								}

							}
, 							{
								"patchline" : 								{
									"destination" : [ "obj-11", 0 ],
									"disabled" : 0,
									"hidden" : 0,
									"source" : [ "obj-14", 0 ]
								}

							}
, 							{
								"patchline" : 								{
									"destination" : [ "obj-16", 0 ],
									"disabled" : 0,
									"hidden" : 0,
									"source" : [ "obj-15", 0 ]
								}

							}
, 							{
								"patchline" : 								{
									"destination" : [ "obj-14", 1 ],
									"disabled" : 0,
									"hidden" : 0,
									"source" : [ "obj-16", 0 ]
								}

							}
, 							{
								"patchline" : 								{
									"destination" : [ "obj-14", 2 ],
									"disabled" : 0,
									"hidden" : 0,
									"source" : [ "obj-17", 0 ]
								}

							}
, 							{
								"patchline" : 								{
									"destination" : [ "obj-17", 0 ],
									"disabled" : 0,
									"hidden" : 0,
									"source" : [ "obj-18", 0 ]
								}

							}
, 							{
								"patchline" : 								{
									"destination" : [ "obj-14", 3 ],
									"disabled" : 0,
									"hidden" : 0,
									"source" : [ "obj-5", 0 ]
								}

							}
, 							{
								"patchline" : 								{
									"destination" : [ "obj-5", 0 ],
									"disabled" : 0,
									"hidden" : 0,
									"source" : [ "obj-6", 0 ]
								}

							}
 ]
					}
,
					"patching_rect" : [ 122.5, 154.0, 104.0, 19.0 ],
					"saved_object_attributes" : 					{
						"default_fontface" : 0,
						"default_fontname" : "Verdana",
						"default_fontsize" : 10.0,
						"description" : "",
						"digest" : "",
						"fontface" : 0,
						"fontname" : "Verdana",
						"fontsize" : 10.0,
						"globalpatchername" : "",
						"tags" : ""
					}
,
					"text" : "p random_position"
				}

			}
, 			{
				"box" : 				{
					"fontname" : "Arial",
					"fontsize" : 12.0,
					"id" : "obj-77",
					"maxclass" : "message",
					"numinlets" : 2,
					"numoutlets" : 1,
					"outlettype" : [ "" ],
					"patching_rect" : [ 407.574402, 726.576172, 85.0, 18.0 ],
					"text" : "rename $1 $2"
				}

			}
, 			{
				"box" : 				{
					"fontname" : "Arial",
					"fontsize" : 24.619635,
					"id" : "obj-71",
					"maxclass" : "number",
					"numinlets" : 1,
					"numoutlets" : 2,
					"outlettype" : [ "int", "bang" ],
					"parameter_enable" : 0,
					"patching_rect" : [ 404.574402, 509.0, 72.0, 34.0 ],
					"presentation" : 1,
					"presentation_rect" : [ 15.0, 0.0, 85.0, 34.0 ]
				}

			}
, 			{
				"box" : 				{
					"fontname" : "Arial",
					"fontsize" : 12.0,
					"id" : "obj-68",
					"maxclass" : "newobj",
					"numinlets" : 2,
					"numoutlets" : 1,
					"outlettype" : [ "" ],
					"patching_rect" : [ 408.574402, 687.576172, 71.0, 20.0 ],
					"text" : "pack 0 sym"
				}

			}
, 			{
				"box" : 				{
					"fontname" : "Arial",
					"fontsize" : 12.0,
					"id" : "obj-67",
					"maxclass" : "newobj",
					"numinlets" : 2,
					"numoutlets" : 2,
					"outlettype" : [ "", "" ],
					"patching_rect" : [ 449.574402, 644.0, 61.0, 20.0 ],
					"text" : "route text"
				}

			}
, 			{
				"box" : 				{
					"fontname" : "Helvetica",
					"fontsize" : 20.0,
					"frgb" : 0.0,
					"id" : "obj-66",
					"keymode" : 1,
					"lines" : 1,
					"maxclass" : "textedit",
					"numinlets" : 1,
					"numoutlets" : 4,
					"outlettype" : [ "", "int", "", "" ],
					"parameter_enable" : 0,
					"patching_rect" : [ 449.574402, 584.0, 123.0, 37.0 ],
					"presentation" : 1,
					"presentation_rect" : [ 105.0, 0.0, 177.0, 29.861275 ],
					"tabmode" : 0,
					"text" : "Florida"
				}

			}
, 			{
				"box" : 				{
					"args" : [ "multichannelOutput" ],
					"id" : "obj-59",
					"maxclass" : "bpatcher",
					"name" : "jmod.sur.output~.maxpat",
					"numinlets" : 2,
					"numoutlets" : 1,
					"outlettype" : [ "" ],
					"patching_rect" : [ 103.574402, 1535.0, 300.0, 70.0 ],
					"presentation" : 1,
					"presentation_rect" : [ 743.300476, 602.525513, 300.0, 70.0 ]
				}

			}
, 			{
				"box" : 				{
					"args" : [ "meters" ],
					"id" : "obj-35",
					"maxclass" : "bpatcher",
					"name" : "jmod.sur.meters~.maxpat",
					"numinlets" : 2,
					"numoutlets" : 2,
					"outlettype" : [ "", "audio.connect" ],
					"patching_rect" : [ 105.0, 1395.0, 300.0, 140.0 ],
					"presentation" : 1,
					"presentation_rect" : [ 743.300476, 360.263062, 300.0, 140.0 ]
				}

			}
, 			{
				"box" : 				{
					"fontname" : "Arial",
					"fontsize" : 24.0,
					"frgb" : 0.0,
					"id" : "obj-95",
					"maxclass" : "comment",
					"numinlets" : 1,
					"numoutlets" : 0,
					"patching_rect" : [ 1254.353271, 125.484924, 236.0, 33.0 ],
					"presentation" : 1,
					"presentation_rect" : [ 965.840027, 163.861267, 72.0, 33.0 ],
					"text" : "save"
				}

			}
, 			{
				"box" : 				{
					"fontname" : "Arial",
					"fontsize" : 12.0,
					"id" : "obj-89",
					"maxclass" : "newobj",
					"numinlets" : 2,
					"numoutlets" : 2,
					"outlettype" : [ "", "" ],
					"patching_rect" : [ 1241.0, 226.484924, 61.0, 20.0 ],
					"text" : "route text"
				}

			}
, 			{
				"box" : 				{
					"fontname" : "Arial",
					"fontsize" : 10.0,
					"id" : "obj-24",
					"maxclass" : "newobj",
					"numinlets" : 1,
					"numoutlets" : 2,
					"outlettype" : [ "bang", "bang" ],
					"patching_rect" : [ 1227.5, 164.984924, 32.5, 18.0 ],
					"text" : "t b b"
				}

			}
, 			{
				"box" : 				{
					"fontname" : "Helvetica",
					"fontsize" : 20.0,
					"frgb" : 0.0,
					"id" : "obj-191",
					"keymode" : 1,
					"lines" : 1,
					"maxclass" : "textedit",
					"numinlets" : 1,
					"numoutlets" : 4,
					"outlettype" : [ "", "int", "", "" ],
					"parameter_enable" : 0,
					"patching_rect" : [ 1241.0, 198.484924, 193.0, 18.0 ],
					"presentation" : 1,
					"presentation_rect" : [ 769.300476, 167.0, 177.0, 29.861275 ],
					"tabmode" : 0
				}

			}
, 			{
				"box" : 				{
					"bgcolor" : [ 0.913725, 0.913725, 0.913725, 0.0 ],
					"id" : "obj-156",
					"maxclass" : "button",
					"numinlets" : 1,
					"numoutlets" : 1,
					"outlettype" : [ "bang" ],
					"outlinecolor" : [ 0.702807, 0.702807, 0.702807, 1.0 ],
					"patching_rect" : [ 1227.5, 125.484924, 20.0, 20.0 ],
					"presentation" : 1,
					"presentation_rect" : [ 950.300476, 170.861267, 19.0, 19.0 ]
				}

			}
, 			{
				"box" : 				{
					"fontname" : "Arial",
					"fontsize" : 12.0,
					"id" : "obj-79",
					"maxclass" : "message",
					"numinlets" : 2,
					"numoutlets" : 1,
					"outlettype" : [ "" ],
					"patching_rect" : [ 1227.5, 262.484924, 54.0, 18.0 ],
					"text" : "store $1"
				}

			}
, 			{
				"box" : 				{
					"contdata" : 1,
					"id" : "obj-22",
					"maxclass" : "multislider",
					"numinlets" : 1,
					"numoutlets" : 2,
					"outlettype" : [ "", "" ],
					"parameter_enable" : 0,
					"patching_rect" : [ 119.574402, 947.246216, 204.0, 141.507538 ],
					"presentation" : 1,
					"presentation_rect" : [ 0.0, 510.0, 294.536011, 178.615021 ],
					"setminmax" : [ 1.0, 127.0 ],
					"settype" : 0,
					"size" : 8
				}

			}
, 			{
				"box" : 				{
					"bgcolor" : [ 0.246094, 0.246094, 0.246094, 1.0 ],
					"circle_color" : [ 0.0, 0.0, 0.15625, 1.0 ],
					"coord_color" : [ 0.816406, 0.816406, 0.816406, 1.0 ],
					"grid" : 1,
					"grid_color" : [ 0.0, 0.15625, 0.15625, 1.0 ],
					"gridunit_ae" : 8,
					"hi_grid_color" : [ 0.246094, 0.246094, 0.246094, 1.0 ],
					"id" : "obj-32",
					"line_color" : [ 0.066406, 0.101562, 0.382812, 1.0 ],
					"lines" : 1,
					"maxclass" : "ambimonitor",
					"mode" : 2,
					"name_color" : [ 0.679688, 0.679688, 0.679688, 1.0 ],
					"numbers" : 1,
					"numinlets" : 1,
					"numoutlets" : 3,
					"outlettype" : [ "", "", "" ],
					"patching_rect" : [ 930.0, 285.0, 258.0, 516.0 ],
					"point_color" : [ 0.996094, 0.496094, 0.0, 1.0 ],
					"presentation" : 1,
					"presentation_rect" : [ 1070.536011, 5.263062, 336.823364, 673.646729 ],
					"prototypename" : "coolnight",
					"varname" : "speaker_ctrl"
				}

			}
, 			{
				"box" : 				{
					"bgcolor" : [ 0.247059, 0.247059, 0.247059, 1.0 ],
					"bgcolor2" : [ 0.356863, 0.356863, 0.356863, 1.0 ],
					"discolor" : [ 0.439216, 0.439216, 0.439216, 1.0 ],
					"fontname" : "Verdana",
					"fontsize" : 20.0,
					"framecolor" : [ 0.015686, 0.015686, 0.015686, 1.0 ],
					"hltcolor" : [ 0.247059, 0.247059, 0.247059, 1.0 ],
					"id" : "obj-31",
					"items" : [ "read", ",", "write", ",", "clear" ],
					"maxclass" : "umenu",
					"numinlets" : 1,
					"numoutlets" : 3,
					"outlettype" : [ "int", "", "" ],
					"parameter_enable" : 0,
					"patching_rect" : [ 1091.0, 241.484924, 97.0, 31.0 ],
					"presentation" : 1,
					"presentation_rect" : [ 950.300476, 200.722534, 87.539566, 31.0 ],
					"textcolor" : [ 1.0, 1.0, 1.0, 1.0 ],
					"textcolor2" : [ 1.0, 1.0, 1.0, 1.0 ],
					"togcolor" : [ 0.552941, 0.552941, 0.552941, 1.0 ]
				}

			}
, 			{
				"box" : 				{
					"args" : [ "myModule" ],
					"id" : "obj-9",
					"maxclass" : "bpatcher",
					"name" : "SpeakerStuff.maxpat",
					"numinlets" : 2,
					"numoutlets" : 1,
					"outlettype" : [ "" ],
					"patching_rect" : [ 930.0, 113.984924, 258.0, 97.0 ],
					"presentation" : 1,
					"presentation_rect" : [ 769.300476, 58.0, 262.0, 94.0 ]
				}

			}
, 			{
				"box" : 				{
					"fontname" : "Verdana",
					"fontsize" : 10.0,
					"id" : "obj-5",
					"maxclass" : "newobj",
					"numinlets" : 2,
					"numoutlets" : 2,
					"outlettype" : [ "", "" ],
					"patching_rect" : [ 1170.0, 825.0, 123.0, 19.0 ],
					"text" : "route snapshotmenu"
				}

			}
, 			{
				"box" : 				{
					"fontname" : "Verdana",
					"fontsize" : 20.0,
					"id" : "obj-30",
					"items" : [ "square", ",", "hexagon", ",", "octagon", ",", "3D_cube", ",", "5.1_ITU" ],
					"maxclass" : "umenu",
					"numinlets" : 1,
					"numoutlets" : 3,
					"outlettype" : [ "int", "", "" ],
					"parameter_enable" : 0,
					"patching_rect" : [ 933.0, 241.484924, 155.0, 31.0 ],
					"presentation" : 1,
					"presentation_rect" : [ 769.300476, 196.861267, 177.0, 31.0 ]
				}

			}
, 			{
				"box" : 				{
					"id" : "obj-1",
					"maxclass" : "ezdac~",
					"numinlets" : 2,
					"numoutlets" : 0,
					"patching_rect" : [ 776.5, 724.515076, 45.0, 45.0 ]
				}

			}
, 			{
				"box" : 				{
					"fontname" : "Verdana",
					"fontsize" : 10.0,
					"id" : "obj-93",
					"maxclass" : "newobj",
					"numinlets" : 0,
					"numoutlets" : 1,
					"outlettype" : [ "" ],
					"patcher" : 					{
						"fileversion" : 1,
						"appversion" : 						{
							"major" : 6,
							"minor" : 1,
							"revision" : 5,
							"architecture" : "x86"
						}
,
						"rect" : [ 1045.0, 44.0, 875.0, 553.0 ],
						"bglocked" : 0,
						"openinpresentation" : 0,
						"default_fontsize" : 10.0,
						"default_fontface" : 0,
						"default_fontname" : "Verdana",
						"gridonopen" : 0,
						"gridsize" : [ 5.0, 5.0 ],
						"gridsnaponopen" : 0,
						"statusbarvisible" : 2,
						"toolbarvisible" : 1,
						"boxanimatetime" : 200,
						"imprint" : 0,
						"enablehscroll" : 1,
						"enablevscroll" : 1,
						"devicewidth" : 0.0,
						"description" : "",
						"digest" : "",
						"tags" : "",
						"visible" : 1,
						"boxes" : [ 							{
								"box" : 								{
									"fontname" : "Verdana",
									"fontsize" : 10.0,
									"id" : "obj-1",
									"maxclass" : "newobj",
									"numinlets" : 0,
									"numoutlets" : 1,
									"outlettype" : [ "" ],
									"patching_rect" : [ 40.0, 305.0, 143.0, 19.0 ],
									"text" : "r internalaudioportal"
								}

							}
, 							{
								"box" : 								{
									"comment" : "",
									"id" : "obj-32",
									"maxclass" : "outlet",
									"numinlets" : 1,
									"numoutlets" : 0,
									"patching_rect" : [ 40.0, 335.0, 25.0, 25.0 ]
								}

							}
 ],
						"lines" : [ 							{
								"patchline" : 								{
									"destination" : [ "obj-32", 0 ],
									"disabled" : 0,
									"hidden" : 0,
									"source" : [ "obj-1", 0 ]
								}

							}
 ]
					}
,
					"patching_rect" : [ 390.0, 1185.0, 66.0, 19.0 ],
					"saved_object_attributes" : 					{
						"default_fontface" : 0,
						"default_fontname" : "Verdana",
						"default_fontsize" : 10.0,
						"description" : "",
						"digest" : "",
						"fontface" : 0,
						"fontname" : "Verdana",
						"fontsize" : 10.0,
						"globalpatchername" : "",
						"tags" : ""
					}
,
					"text" : "p audioIn~"
				}

			}
, 			{
				"box" : 				{
					"fontname" : "Verdana",
					"fontsize" : 10.0,
					"id" : "obj-142",
					"maxclass" : "newobj",
					"numinlets" : 1,
					"numoutlets" : 1,
					"outlettype" : [ "" ],
					"patching_rect" : [ 104.574402, 1184.0, 284.0, 19.0 ],
					"text" : "jcom.ambimonitor2position @prefix source @radius 1."
				}

			}
, 			{
				"box" : 				{
					"bgcolor" : [ 0.078813, 0.080017, 0.247059, 1.0 ],
					"circle_color" : [ 0.138848, 0.137987, 0.156863, 1.0 ],
					"coord_color" : [ 0.816406, 0.816406, 0.816406, 1.0 ],
					"coord_font_size" : 20.0,
					"grid" : 1,
					"grid_color" : [ 0.0, 0.559974, 0.559974, 1.0 ],
					"gridunit_ae" : 8,
					"hi_grid_color" : [ 1.0, 1.0, 1.0, 1.0 ],
					"id" : "obj-143",
					"line_color" : [ 0.129219, 0.490914, 0.0, 1.0 ],
					"lines" : 1,
					"maxclass" : "ambimonitor",
					"mode" : 1,
					"name_color" : [ 0.679688, 0.679688, 0.679688, 1.0 ],
					"number_font_size" : 20.0,
					"numbers" : 1,
					"numinlets" : 1,
					"numoutlets" : 3,
					"outlettype" : [ "", "", "" ],
					"patching_rect" : [ 122.5, 513.5, 258.0, 392.0 ],
					"point_color" : [ 0.000076, 1.0, 0.048493, 1.0 ],
					"point_size" : 15.220016,
					"presentation" : 1,
					"presentation_rect" : [ 297.536011, 5.263062, 445.764465, 673.646729 ],
					"varname" : "monitor"
				}

			}
, 			{
				"box" : 				{
					"args" : [ "ambisonics~" ],
					"id" : "obj-158",
					"lockeddragscroll" : 1,
					"maxclass" : "bpatcher",
					"name" : "jmod.sur.ambisonics~.maxpat",
					"numinlets" : 3,
					"numoutlets" : 3,
					"outlettype" : [ "", "audio.connect", "audio.connect" ],
					"patching_rect" : [ 103.574402, 1234.0, 300.0, 105.0 ],
					"presentation" : 1,
					"presentation_rect" : [ 743.300476, 500.263062, 300.0, 105.0 ]
				}

			}
 ],
		"lines" : [ 			{
				"patchline" : 				{
					"destination" : [ "obj-18", 0 ],
					"disabled" : 0,
					"hidden" : 0,
					"source" : [ "obj-10", 0 ]
				}

			}
, 			{
				"patchline" : 				{
					"destination" : [ "obj-143", 0 ],
					"disabled" : 0,
					"hidden" : 0,
					"source" : [ "obj-13", 1 ]
				}

			}
, 			{
				"patchline" : 				{
					"destination" : [ "obj-158", 0 ],
					"disabled" : 0,
					"hidden" : 0,
					"source" : [ "obj-142", 0 ]
				}

			}
, 			{
				"patchline" : 				{
					"destination" : [ "obj-142", 0 ],
					"disabled" : 0,
					"hidden" : 0,
					"source" : [ "obj-143", 1 ]
				}

			}
, 			{
				"patchline" : 				{
					"destination" : [ "obj-65", 0 ],
					"disabled" : 0,
					"hidden" : 0,
					"source" : [ "obj-143", 1 ]
				}

			}
, 			{
				"patchline" : 				{
					"destination" : [ "obj-24", 0 ],
					"disabled" : 0,
					"hidden" : 0,
					"source" : [ "obj-156", 0 ]
				}

			}
, 			{
				"patchline" : 				{
					"destination" : [ "obj-35", 1 ],
					"disabled" : 0,
					"hidden" : 0,
					"source" : [ "obj-158", 2 ]
				}

			}
, 			{
				"patchline" : 				{
					"destination" : [ "obj-78", 0 ],
					"disabled" : 0,
					"hidden" : 0,
					"source" : [ "obj-17", 0 ]
				}

			}
, 			{
				"patchline" : 				{
					"destination" : [ "obj-17", 0 ],
					"disabled" : 0,
					"hidden" : 0,
					"source" : [ "obj-18", 0 ]
				}

			}
, 			{
				"patchline" : 				{
					"destination" : [ "obj-89", 0 ],
					"disabled" : 0,
					"hidden" : 0,
					"source" : [ "obj-191", 0 ]
				}

			}
, 			{
				"patchline" : 				{
					"destination" : [ "obj-73", 0 ],
					"disabled" : 0,
					"hidden" : 0,
					"source" : [ "obj-22", 0 ]
				}

			}
, 			{
				"patchline" : 				{
					"destination" : [ "obj-191", 0 ],
					"disabled" : 0,
					"hidden" : 0,
					"source" : [ "obj-24", 1 ]
				}

			}
, 			{
				"patchline" : 				{
					"destination" : [ "obj-79", 0 ],
					"disabled" : 0,
					"hidden" : 0,
					"source" : [ "obj-24", 0 ]
				}

			}
, 			{
				"patchline" : 				{
					"destination" : [ "obj-86", 0 ],
					"disabled" : 0,
					"hidden" : 0,
					"source" : [ "obj-25", 0 ]
				}

			}
, 			{
				"patchline" : 				{
					"destination" : [ "obj-32", 0 ],
					"disabled" : 0,
					"hidden" : 0,
					"source" : [ "obj-30", 1 ]
				}

			}
, 			{
				"patchline" : 				{
					"destination" : [ "obj-32", 0 ],
					"disabled" : 0,
					"hidden" : 0,
					"source" : [ "obj-31", 1 ]
				}

			}
, 			{
				"patchline" : 				{
					"destination" : [ "obj-5", 0 ],
					"disabled" : 0,
					"hidden" : 0,
					"source" : [ "obj-32", 2 ]
				}

			}
, 			{
				"patchline" : 				{
					"destination" : [ "obj-8", 0 ],
					"disabled" : 0,
					"hidden" : 0,
					"source" : [ "obj-32", 1 ]
				}

			}
, 			{
				"patchline" : 				{
					"destination" : [ "obj-59", 1 ],
					"disabled" : 0,
					"hidden" : 0,
					"source" : [ "obj-35", 1 ]
				}

			}
, 			{
				"patchline" : 				{
					"destination" : [ "obj-30", 0 ],
					"disabled" : 0,
					"hidden" : 0,
					"midpoints" : [ 1179.5, 806.0, 1197.574463, 806.0, 1197.574463, 767.0, 1239.574463, 767.0, 1239.574463, 197.0, 942.5, 197.0 ],
					"source" : [ "obj-5", 0 ]
				}

			}
, 			{
				"patchline" : 				{
					"destination" : [ "obj-18", 0 ],
					"disabled" : 0,
					"hidden" : 0,
					"source" : [ "obj-57", 0 ]
				}

			}
, 			{
				"patchline" : 				{
					"destination" : [ "obj-158", 0 ],
					"disabled" : 0,
					"hidden" : 0,
					"source" : [ "obj-65", 1 ]
				}

			}
, 			{
				"patchline" : 				{
					"destination" : [ "obj-22", 0 ],
					"disabled" : 0,
					"hidden" : 0,
					"source" : [ "obj-65", 0 ]
				}

			}
, 			{
				"patchline" : 				{
					"destination" : [ "obj-67", 0 ],
					"disabled" : 0,
					"hidden" : 0,
					"source" : [ "obj-66", 0 ]
				}

			}
, 			{
				"patchline" : 				{
					"destination" : [ "obj-68", 1 ],
					"disabled" : 0,
					"hidden" : 0,
					"source" : [ "obj-67", 0 ]
				}

			}
, 			{
				"patchline" : 				{
					"destination" : [ "obj-77", 0 ],
					"disabled" : 0,
					"hidden" : 0,
					"source" : [ "obj-68", 0 ]
				}

			}
, 			{
				"patchline" : 				{
					"destination" : [ "obj-143", 0 ],
					"disabled" : 0,
					"hidden" : 0,
					"source" : [ "obj-7", 0 ]
				}

			}
, 			{
				"patchline" : 				{
					"destination" : [ "obj-68", 0 ],
					"disabled" : 0,
					"hidden" : 0,
					"source" : [ "obj-71", 0 ]
				}

			}
, 			{
				"patchline" : 				{
					"destination" : [ "obj-84", 0 ],
					"disabled" : 0,
					"hidden" : 0,
					"source" : [ "obj-71", 0 ]
				}

			}
, 			{
				"patchline" : 				{
					"destination" : [ "obj-158", 0 ],
					"disabled" : 0,
					"hidden" : 0,
					"source" : [ "obj-73", 0 ]
				}

			}
, 			{
				"patchline" : 				{
					"destination" : [ "obj-143", 0 ],
					"disabled" : 0,
					"hidden" : 0,
					"source" : [ "obj-77", 0 ]
				}

			}
, 			{
				"patchline" : 				{
					"destination" : [ "obj-143", 0 ],
					"disabled" : 0,
					"hidden" : 0,
					"source" : [ "obj-78", 0 ]
				}

			}
, 			{
				"patchline" : 				{
					"destination" : [ "obj-32", 0 ],
					"disabled" : 0,
					"hidden" : 0,
					"source" : [ "obj-79", 0 ]
				}

			}
, 			{
				"patchline" : 				{
					"destination" : [ "obj-158", 0 ],
					"disabled" : 0,
					"hidden" : 0,
					"source" : [ "obj-8", 0 ]
				}

			}
, 			{
				"patchline" : 				{
					"destination" : [ "obj-25", 0 ],
					"disabled" : 0,
					"hidden" : 0,
					"source" : [ "obj-82", 0 ]
				}

			}
, 			{
				"patchline" : 				{
					"destination" : [ "obj-57", 0 ],
					"disabled" : 0,
					"hidden" : 0,
					"source" : [ "obj-82", 0 ]
				}

			}
, 			{
				"patchline" : 				{
					"destination" : [ "obj-66", 0 ],
					"disabled" : 0,
					"hidden" : 0,
					"source" : [ "obj-84", 0 ]
				}

			}
, 			{
				"patchline" : 				{
					"destination" : [ "obj-17", 0 ],
					"disabled" : 0,
					"hidden" : 0,
					"source" : [ "obj-86", 0 ]
				}

			}
, 			{
				"patchline" : 				{
					"destination" : [ "obj-7", 0 ],
					"disabled" : 0,
					"hidden" : 0,
					"source" : [ "obj-86", 0 ]
				}

			}
, 			{
				"patchline" : 				{
					"destination" : [ "obj-79", 0 ],
					"disabled" : 0,
					"hidden" : 0,
					"source" : [ "obj-89", 0 ]
				}

			}
, 			{
				"patchline" : 				{
					"destination" : [ "obj-32", 0 ],
					"disabled" : 0,
					"hidden" : 0,
					"source" : [ "obj-9", 0 ]
				}

			}
, 			{
				"patchline" : 				{
					"destination" : [ "obj-158", 2 ],
					"disabled" : 0,
					"hidden" : 0,
					"source" : [ "obj-93", 0 ]
				}

			}
 ],
		"parameters" : 		{
			"obj-13" : [ "live.text", "live.text", 0 ]
		}
,
		"dependency_cache" : [ 			{
				"name" : "jmod.sur.ambisonics~.maxpat",
				"bootpath" : "/Applications/Max 6.1/Cycling '74/Jamoma/modules/spatialization/sur.ambisonics~",
				"patcherrelativepath" : "../../../../../Applications/Max 6.1/Cycling '74/Jamoma/modules/spatialization/sur.ambisonics~",
				"type" : "JSON",
				"implicit" : 1
			}
, 			{
				"name" : "jalg.sur.ambisonics~.maxpat",
				"bootpath" : "/Applications/Max 6.1/Cycling '74/Jamoma/modules/spatialization/sur.ambisonics~",
				"patcherrelativepath" : "../../../../../Applications/Max 6.1/Cycling '74/Jamoma/modules/spatialization/sur.ambisonics~",
				"type" : "JSON",
				"implicit" : 1
			}
, 			{
				"name" : "jcom.message.array.maxpat",
				"bootpath" : "/Applications/Max 6.1/Cycling '74/Jamoma/library/components/message.array",
				"patcherrelativepath" : "../../../../../Applications/Max 6.1/Cycling '74/Jamoma/library/components/message.array",
				"type" : "JSON",
				"implicit" : 1
			}
, 			{
				"name" : "jcom.message.array.instance.maxpat",
				"bootpath" : "/Applications/Max 6.1/Cycling '74/Jamoma/library/components/message.array",
				"patcherrelativepath" : "../../../../../Applications/Max 6.1/Cycling '74/Jamoma/library/components/message.array",
				"type" : "JSON",
				"implicit" : 1
			}
, 			{
				"name" : "jcom.ambipanSource.maxpat",
				"bootpath" : "/Applications/Max 6.1/Cycling '74/Jamoma/modules/spatialization/sur.ambipanning~",
				"patcherrelativepath" : "../../../../../Applications/Max 6.1/Cycling '74/Jamoma/modules/spatialization/sur.ambipanning~",
				"type" : "JSON",
				"implicit" : 1
			}
, 			{
				"name" : "jcom.list2parameter.maxpat",
				"bootpath" : "/Applications/Max 6.1/Cycling '74/Jamoma/library/components/list2parameter",
				"patcherrelativepath" : "../../../../../Applications/Max 6.1/Cycling '74/Jamoma/library/components/list2parameter",
				"type" : "JSON",
				"implicit" : 1
			}
, 			{
				"name" : "jcom.thru.maxpat",
				"bootpath" : "/Applications/Max 6.1/Cycling '74/Jamoma/library/components/thru",
				"patcherrelativepath" : "../../../../../Applications/Max 6.1/Cycling '74/Jamoma/library/components/thru",
				"type" : "JSON",
				"implicit" : 1
			}
, 			{
				"name" : "jcom.ambimonitor2position.maxpat",
				"bootpath" : "/Applications/Max 6.1/Cycling '74/Jamoma/library/components/ambimonitor2position",
				"patcherrelativepath" : "../../../../../Applications/Max 6.1/Cycling '74/Jamoma/library/components/ambimonitor2position",
				"type" : "JSON",
				"implicit" : 1
			}
, 			{
				"name" : "SpeakerStuff.maxpat",
				"bootpath" : "/Users/synthesis/syn_audioportal/BY.AP/audioportalproj",
				"patcherrelativepath" : ".",
				"type" : "JSON",
				"implicit" : 1
			}
, 			{
				"name" : "jmod.sur.meters~.maxpat",
				"bootpath" : "/Applications/Max 6.1/Cycling '74/Jamoma/modules/spatialization/sur.meters~",
				"patcherrelativepath" : "../../../../../Applications/Max 6.1/Cycling '74/Jamoma/modules/spatialization/sur.meters~",
				"type" : "JSON",
				"implicit" : 1
			}
, 			{
				"name" : "jmod.sur.output~.maxpat",
				"bootpath" : "/Applications/Max 6.1/Cycling '74/Jamoma/modules/spatialization/sur.output~",
				"patcherrelativepath" : "../../../../../Applications/Max 6.1/Cycling '74/Jamoma/modules/spatialization/sur.output~",
				"type" : "JSON",
				"implicit" : 1
			}
, 			{
				"name" : "jalg.sur.output~.maxpat",
				"bootpath" : "/Applications/Max 6.1/Cycling '74/Jamoma/modules/spatialization/sur.output~",
				"patcherrelativepath" : "../../../../../Applications/Max 6.1/Cycling '74/Jamoma/modules/spatialization/sur.output~",
				"type" : "JSON",
				"implicit" : 1
			}
, 			{
				"name" : "jcom.audioOnOff.maxpat",
				"bootpath" : "/Applications/Max 6.1/Cycling '74/Jamoma/library/components/audioOnOff",
				"patcherrelativepath" : "../../../../../Applications/Max 6.1/Cycling '74/Jamoma/library/components/audioOnOff",
				"type" : "JSON",
				"implicit" : 1
			}
, 			{
				"name" : "jcom.js_systeminfo.js",
				"bootpath" : "/Applications/Max 6.1/Cycling '74/Jamoma/library/javascript",
				"patcherrelativepath" : "../../../../../Applications/Max 6.1/Cycling '74/Jamoma/library/javascript",
				"type" : "TEXT",
				"implicit" : 1
			}
, 			{
				"name" : "jcom.position2ambimonitor.maxpat",
				"bootpath" : "/Applications/Max 6.1/Cycling '74/Jamoma/library/components/position2ambimonitor",
				"patcherrelativepath" : "../../../../../Applications/Max 6.1/Cycling '74/Jamoma/library/components/position2ambimonitor",
				"type" : "JSON",
				"implicit" : 1
			}
, 			{
				"name" : "jmod.sur.position.maxpat",
				"bootpath" : "/Applications/Max 6.1/Cycling '74/Jamoma/modules/spatialization/sur.position",
				"patcherrelativepath" : "../../../../../Applications/Max 6.1/Cycling '74/Jamoma/modules/spatialization/sur.position",
				"type" : "JSON",
				"implicit" : 1
			}
, 			{
				"name" : "jcom.ui.mxo",
				"type" : "iLaX"
			}
, 			{
				"name" : "jcom.parameter.mxo",
				"type" : "iLaX"
			}
, 			{
				"name" : "ambidecode~.mxo",
				"type" : "iLaX"
			}
, 			{
				"name" : "ambiencode~.mxo",
				"type" : "iLaX"
			}
, 			{
				"name" : "jcom.oscroute.mxo",
				"type" : "iLaX"
			}
, 			{
				"name" : "jcom.init.mxo",
				"type" : "iLaX"
			}
, 			{
				"name" : "jcom.dataspace.mxo",
				"type" : "iLaX"
			}
, 			{
				"name" : "jcom.oscinstance.mxo",
				"type" : "iLaX"
			}
, 			{
				"name" : "jcom.pass.mxo",
				"type" : "iLaX"
			}
, 			{
				"name" : "jcom.pack.mxo",
				"type" : "iLaX"
			}
, 			{
				"name" : "jcom.unpack.mxo",
				"type" : "iLaX"
			}
, 			{
				"name" : "jcom.in.mxo",
				"type" : "iLaX"
			}
, 			{
				"name" : "jcom.hub.mxo",
				"type" : "iLaX"
			}
, 			{
				"name" : "jcom.message.mxo",
				"type" : "iLaX"
			}
, 			{
				"name" : "jcom.textslider.mxo",
				"type" : "iLaX"
			}
, 			{
				"name" : "ambimonitor.mxo",
				"type" : "iLaX"
			}
, 			{
				"name" : "jcom.out.mxo",
				"type" : "iLaX"
			}
, 			{
				"name" : "jcom.meter~.mxo",
				"type" : "iLaX"
			}
, 			{
				"name" : "jcom.return.mxo",
				"type" : "iLaX"
			}
, 			{
				"name" : "jcom.info.mxo",
				"type" : "iLaX"
			}
, 			{
				"name" : "jcom.route.mxo",
				"type" : "iLaX"
			}
, 			{
				"name" : "jcom.stats.mxo",
				"type" : "iLaX"
			}
, 			{
				"name" : "jcom.limiter.mxo",
				"type" : "iLaX"
			}
, 			{
				"name" : "jcom.gain.mxo",
				"type" : "iLaX"
			}
 ]
	}

}
